<mxfile host="app.diagrams.net" modified="2023-09-10T10:39:46.327Z" agent="Mozilla/5.0 (Windows NT 10.0; Win64; x64) AppleWebKit/537.36 (KHTML, like Gecko) Chrome/116.0.0.0 Safari/537.36" etag="CONqJYGSwCWgEI9V9hWj" version="21.7.4" type="device">
  <diagram name="Verification-module" id="LJpf0Ta-f9v5kYPrYngO">
    <mxGraphModel dx="2537" dy="904" grid="1" gridSize="10" guides="1" tooltips="1" connect="1" arrows="1" fold="1" page="1" pageScale="1" pageWidth="850" pageHeight="1100" math="0" shadow="0">
      <root>
        <mxCell id="0" />
        <mxCell id="1" parent="0" />
        <mxCell id="B0VMzJoKe4TUpSzNYnwX-5" value="CreateVerificationPort" style="rounded=0;whiteSpace=wrap;html=1;align=center;fontSize=13;fontStyle=1" parent="1" vertex="1">
          <mxGeometry x="515" y="250" width="190" height="60" as="geometry" />
        </mxCell>
        <mxCell id="B0VMzJoKe4TUpSzNYnwX-6" value="ReadVerificationPort" style="rounded=0;whiteSpace=wrap;html=1;align=center;fontSize=13;fontStyle=1" parent="1" vertex="1">
          <mxGeometry x="515" y="310" width="190" height="60" as="geometry" />
        </mxCell>
        <mxCell id="B0VMzJoKe4TUpSzNYnwX-7" value="UpdateVerificationPort" style="rounded=0;whiteSpace=wrap;html=1;align=center;fontSize=13;fontStyle=1" parent="1" vertex="1">
          <mxGeometry x="515" y="370" width="190" height="60" as="geometry" />
        </mxCell>
        <mxCell id="B0VMzJoKe4TUpSzNYnwX-8" value="SaveVerificationAttemptsPort" style="rounded=0;whiteSpace=wrap;html=1;align=center;fontSize=13;fontStyle=1" parent="1" vertex="1">
          <mxGeometry x="515" y="450" width="190" height="60" as="geometry" />
        </mxCell>
        <mxCell id="B0VMzJoKe4TUpSzNYnwX-10" value="ReadVerificationAttemptsPort" style="rounded=0;whiteSpace=wrap;html=1;align=center;fontSize=13;fontStyle=1" parent="1" vertex="1">
          <mxGeometry x="515" y="510" width="190" height="60" as="geometry" />
        </mxCell>
        <mxCell id="B0VMzJoKe4TUpSzNYnwX-11" value="AcquireDistributedLockPort" style="rounded=0;whiteSpace=wrap;html=1;align=center;fontSize=13;fontStyle=1" parent="1" vertex="1">
          <mxGeometry x="515" y="590" width="190" height="60" as="geometry" />
        </mxCell>
        <mxCell id="B0VMzJoKe4TUpSzNYnwX-12" value="CreateVerificationEventPort" style="rounded=0;whiteSpace=wrap;html=1;align=center;fontSize=13;fontStyle=1" parent="1" vertex="1">
          <mxGeometry x="515" y="670" width="190" height="60" as="geometry" />
        </mxCell>
        <mxCell id="B0VMzJoKe4TUpSzNYnwX-13" value="ConfirmVerificationEventPort" style="rounded=0;whiteSpace=wrap;html=1;align=center;fontSize=13;fontStyle=1" parent="1" vertex="1">
          <mxGeometry x="515" y="730" width="190" height="60" as="geometry" />
        </mxCell>
        <mxCell id="B0VMzJoKe4TUpSzNYnwX-14" value="ErrorVerificationEventPort" style="rounded=0;whiteSpace=wrap;html=1;align=center;fontSize=13;fontStyle=1" parent="1" vertex="1">
          <mxGeometry x="515" y="810" width="190" height="60" as="geometry" />
        </mxCell>
        <mxCell id="B0VMzJoKe4TUpSzNYnwX-27" value="" style="group" parent="1" vertex="1" connectable="0">
          <mxGeometry x="324.41" y="250" width="191.34" height="620" as="geometry" />
        </mxCell>
        <mxCell id="B0VMzJoKe4TUpSzNYnwX-4" value="verification-domain" style="rounded=0;whiteSpace=wrap;html=1;verticalAlign=top;fontStyle=1" parent="B0VMzJoKe4TUpSzNYnwX-27" vertex="1">
          <mxGeometry x="0.5900000000000317" width="189.99999999999997" height="620" as="geometry" />
        </mxCell>
        <mxCell id="B0VMzJoKe4TUpSzNYnwX-23" value="" style="group" parent="B0VMzJoKe4TUpSzNYnwX-27" vertex="1" connectable="0">
          <mxGeometry x="160.59" width="30.749999999999996" height="620" as="geometry" />
        </mxCell>
        <mxCell id="B0VMzJoKe4TUpSzNYnwX-16" value="" style="rounded=0;whiteSpace=wrap;html=1;direction=south;" parent="B0VMzJoKe4TUpSzNYnwX-23" vertex="1">
          <mxGeometry width="30.749999999999996" height="620" as="geometry" />
        </mxCell>
        <mxCell id="B0VMzJoKe4TUpSzNYnwX-18" value="Outbound&amp;nbsp; &amp;nbsp;Port&amp;nbsp; &amp;nbsp;Interfaces" style="text;html=1;strokeColor=none;fillColor=none;align=center;verticalAlign=middle;whiteSpace=wrap;rounded=0;rotation=270;fontSize=17;fontStyle=1;fontFamily=Verdana;container=0;" parent="B0VMzJoKe4TUpSzNYnwX-23" vertex="1">
          <mxGeometry x="-234.41000000000005" y="294.1105128205128" width="499.56999999999994" height="13.202820512820512" as="geometry" />
        </mxCell>
        <mxCell id="B0VMzJoKe4TUpSzNYnwX-24" value="" style="group" parent="B0VMzJoKe4TUpSzNYnwX-27" vertex="1" connectable="0">
          <mxGeometry width="30.749999999999996" height="620" as="geometry" />
        </mxCell>
        <mxCell id="B0VMzJoKe4TUpSzNYnwX-25" value="" style="rounded=0;whiteSpace=wrap;html=1;direction=south;" parent="B0VMzJoKe4TUpSzNYnwX-24" vertex="1">
          <mxGeometry width="30.749999999999996" height="620" as="geometry" />
        </mxCell>
        <mxCell id="B0VMzJoKe4TUpSzNYnwX-26" value="Inbound&amp;nbsp; &amp;nbsp;Port&amp;nbsp; &amp;nbsp;Interfaces" style="text;html=1;strokeColor=none;fillColor=none;align=center;verticalAlign=middle;whiteSpace=wrap;rounded=0;rotation=270;fontSize=17;fontStyle=1;fontFamily=Verdana;container=0;" parent="B0VMzJoKe4TUpSzNYnwX-24" vertex="1">
          <mxGeometry x="-234.41000000000005" y="294.1105128205128" width="499.56999999999994" height="13.202820512820512" as="geometry" />
        </mxCell>
        <mxCell id="B0VMzJoKe4TUpSzNYnwX-103" value="Module" style="text;html=1;strokeColor=none;fillColor=none;align=center;verticalAlign=middle;whiteSpace=wrap;rounded=0;fontSize=13;fontStyle=1" parent="B0VMzJoKe4TUpSzNYnwX-27" vertex="1">
          <mxGeometry x="65.58999999999997" y="26" width="60" height="30" as="geometry" />
        </mxCell>
        <mxCell id="dTRLTsDtkOgccjPARA5K-1" value="Commands validation" style="rounded=0;whiteSpace=wrap;html=1;" vertex="1" parent="B0VMzJoKe4TUpSzNYnwX-27">
          <mxGeometry x="40.59" y="70" width="109.41" height="50" as="geometry" />
        </mxCell>
        <mxCell id="dTRLTsDtkOgccjPARA5K-2" value="Business Rules Applying" style="rounded=0;whiteSpace=wrap;html=1;" vertex="1" parent="B0VMzJoKe4TUpSzNYnwX-27">
          <mxGeometry x="40.589999999999975" y="120" width="109.41" height="50" as="geometry" />
        </mxCell>
        <mxCell id="B0VMzJoKe4TUpSzNYnwX-28" value="ConfirmVerificationUseCase" style="rounded=0;whiteSpace=wrap;html=1;align=center;fontSize=13;fontStyle=1" parent="1" vertex="1">
          <mxGeometry x="134.41000000000003" y="250" width="190" height="60" as="geometry" />
        </mxCell>
        <mxCell id="B0VMzJoKe4TUpSzNYnwX-29" value="CreateVerificationUseCase" style="rounded=0;whiteSpace=wrap;html=1;align=center;fontSize=13;fontStyle=1" parent="1" vertex="1">
          <mxGeometry x="134.41000000000003" y="310" width="190" height="60" as="geometry" />
        </mxCell>
        <mxCell id="B0VMzJoKe4TUpSzNYnwX-30" value="RemoveVerificationUseCase" style="rounded=0;whiteSpace=wrap;html=1;align=center;fontSize=13;fontStyle=1" parent="1" vertex="1">
          <mxGeometry x="134.41000000000003" y="500" width="190" height="60" as="geometry" />
        </mxCell>
        <mxCell id="B0VMzJoKe4TUpSzNYnwX-33" value="" style="endArrow=block;dashed=1;endFill=0;endSize=12;html=1;rounded=0;" parent="1" edge="1">
          <mxGeometry width="160" relative="1" as="geometry">
            <mxPoint x="825" y="279.5" as="sourcePoint" />
            <mxPoint x="705" y="279.5" as="targetPoint" />
          </mxGeometry>
        </mxCell>
        <mxCell id="B0VMzJoKe4TUpSzNYnwX-35" value="1" style="endArrow=open;html=1;endSize=12;startArrow=diamondThin;startSize=14;startFill=0;edgeStyle=orthogonalEdgeStyle;align=left;verticalAlign=bottom;rounded=0;" parent="1" edge="1">
          <mxGeometry x="-1" y="3" relative="1" as="geometry">
            <mxPoint x="30" y="280" as="sourcePoint" />
            <mxPoint x="134.41" y="279.5" as="targetPoint" />
          </mxGeometry>
        </mxCell>
        <mxCell id="B0VMzJoKe4TUpSzNYnwX-45" value="" style="group" parent="1" vertex="1" connectable="0">
          <mxGeometry x="-160" y="226" width="190" height="190" as="geometry" />
        </mxCell>
        <mxCell id="B0VMzJoKe4TUpSzNYnwX-31" value="" style="rounded=0;whiteSpace=wrap;html=1;align=center;fontSize=13;fontStyle=1" parent="B0VMzJoKe4TUpSzNYnwX-45" vertex="1">
          <mxGeometry width="190" height="190" as="geometry" />
        </mxCell>
        <mxCell id="B0VMzJoKe4TUpSzNYnwX-36" value="verification-in-rest" style="text;html=1;strokeColor=none;fillColor=none;align=center;verticalAlign=middle;whiteSpace=wrap;rounded=0;fontSize=13;fontStyle=1" parent="B0VMzJoKe4TUpSzNYnwX-45" vertex="1">
          <mxGeometry x="20" width="150" height="30" as="geometry" />
        </mxCell>
        <mxCell id="B0VMzJoKe4TUpSzNYnwX-41" value="" style="group" parent="B0VMzJoKe4TUpSzNYnwX-45" vertex="1" connectable="0">
          <mxGeometry width="20" height="190" as="geometry" />
        </mxCell>
        <mxCell id="B0VMzJoKe4TUpSzNYnwX-39" value="" style="rounded=0;whiteSpace=wrap;html=1;" parent="B0VMzJoKe4TUpSzNYnwX-41" vertex="1">
          <mxGeometry x="1.4210854715201983e-14" width="19.99999999999997" height="190" as="geometry" />
        </mxCell>
        <mxCell id="B0VMzJoKe4TUpSzNYnwX-40" value="Router&amp;nbsp; &amp;nbsp;Functions" style="text;html=1;strokeColor=none;fillColor=none;align=center;verticalAlign=middle;whiteSpace=wrap;rounded=0;rotation=270;fontFamily=Verdana;fontStyle=1" parent="B0VMzJoKe4TUpSzNYnwX-41" vertex="1">
          <mxGeometry x="-69.99999999999989" y="83.125" width="159.99999999999977" height="23.75" as="geometry" />
        </mxCell>
        <mxCell id="B0VMzJoKe4TUpSzNYnwX-42" value="" style="group" parent="B0VMzJoKe4TUpSzNYnwX-45" vertex="1" connectable="0">
          <mxGeometry x="170" width="20" height="190" as="geometry" />
        </mxCell>
        <mxCell id="B0VMzJoKe4TUpSzNYnwX-43" value="" style="rounded=0;whiteSpace=wrap;html=1;" parent="B0VMzJoKe4TUpSzNYnwX-42" vertex="1">
          <mxGeometry x="1.4210854715201983e-14" width="19.99999999999997" height="190" as="geometry" />
        </mxCell>
        <mxCell id="B0VMzJoKe4TUpSzNYnwX-44" value="VerificationRestAdapter" style="text;html=1;strokeColor=none;fillColor=none;align=center;verticalAlign=middle;whiteSpace=wrap;rounded=0;rotation=270;fontFamily=Verdana;fontStyle=1" parent="B0VMzJoKe4TUpSzNYnwX-42" vertex="1">
          <mxGeometry x="-69.99999999999989" y="83.125" width="159.99999999999977" height="23.75" as="geometry" />
        </mxCell>
        <mxCell id="dTRLTsDtkOgccjPARA5K-3" value="HTTP requests/responses processing" style="rounded=0;whiteSpace=wrap;html=1;" vertex="1" parent="B0VMzJoKe4TUpSzNYnwX-45">
          <mxGeometry x="40.30000000000001" y="54" width="109.41" height="50" as="geometry" />
        </mxCell>
        <mxCell id="dTRLTsDtkOgccjPARA5K-4" value="Errors Handling" style="rounded=0;whiteSpace=wrap;html=1;" vertex="1" parent="B0VMzJoKe4TUpSzNYnwX-45">
          <mxGeometry x="40.29" y="104" width="109.41" height="26" as="geometry" />
        </mxCell>
        <mxCell id="dTRLTsDtkOgccjPARA5K-6" value="Commands preparation" style="rounded=0;whiteSpace=wrap;html=1;" vertex="1" parent="B0VMzJoKe4TUpSzNYnwX-45">
          <mxGeometry x="40.3" y="130" width="109.41" height="40" as="geometry" />
        </mxCell>
        <mxCell id="B0VMzJoKe4TUpSzNYnwX-46" value="1" style="endArrow=open;html=1;endSize=12;startArrow=diamondThin;startSize=14;startFill=0;edgeStyle=orthogonalEdgeStyle;align=left;verticalAlign=bottom;rounded=0;" parent="1" edge="1">
          <mxGeometry x="-1" y="3" relative="1" as="geometry">
            <mxPoint x="30" y="339" as="sourcePoint" />
            <mxPoint x="134.41" y="339.5" as="targetPoint" />
          </mxGeometry>
        </mxCell>
        <mxCell id="B0VMzJoKe4TUpSzNYnwX-47" value="" style="group" parent="1" vertex="1" connectable="0">
          <mxGeometry x="830" y="210" width="190" height="210" as="geometry" />
        </mxCell>
        <mxCell id="B0VMzJoKe4TUpSzNYnwX-48" value="" style="rounded=0;whiteSpace=wrap;html=1;align=center;fontSize=13;fontStyle=1" parent="B0VMzJoKe4TUpSzNYnwX-47" vertex="1">
          <mxGeometry width="190" height="210.00000000000003" as="geometry" />
        </mxCell>
        <mxCell id="B0VMzJoKe4TUpSzNYnwX-49" value="verification-database" style="text;html=1;strokeColor=none;fillColor=none;align=center;verticalAlign=middle;whiteSpace=wrap;rounded=0;fontSize=13;fontStyle=1" parent="B0VMzJoKe4TUpSzNYnwX-47" vertex="1">
          <mxGeometry x="20" width="150" height="33.15789473684211" as="geometry" />
        </mxCell>
        <mxCell id="B0VMzJoKe4TUpSzNYnwX-50" value="" style="group" parent="B0VMzJoKe4TUpSzNYnwX-47" vertex="1" connectable="0">
          <mxGeometry width="20" height="210.00000000000003" as="geometry" />
        </mxCell>
        <mxCell id="B0VMzJoKe4TUpSzNYnwX-51" value="" style="rounded=0;whiteSpace=wrap;html=1;" parent="B0VMzJoKe4TUpSzNYnwX-50" vertex="1">
          <mxGeometry x="1.4210854715201983e-14" width="19.99999999999997" height="210.00000000000003" as="geometry" />
        </mxCell>
        <mxCell id="B0VMzJoKe4TUpSzNYnwX-52" value="Persitence&amp;nbsp; &amp;nbsp;Adapters" style="text;html=1;strokeColor=none;fillColor=none;align=center;verticalAlign=middle;whiteSpace=wrap;rounded=0;rotation=270;fontFamily=Verdana;fontStyle=1" parent="B0VMzJoKe4TUpSzNYnwX-50" vertex="1">
          <mxGeometry x="-69.99999999999989" y="91.87500000000001" width="159.99999999999977" height="26.250000000000004" as="geometry" />
        </mxCell>
        <mxCell id="B0VMzJoKe4TUpSzNYnwX-53" value="" style="group" parent="B0VMzJoKe4TUpSzNYnwX-47" vertex="1" connectable="0">
          <mxGeometry x="170" width="20" height="210.00000000000003" as="geometry" />
        </mxCell>
        <mxCell id="B0VMzJoKe4TUpSzNYnwX-54" value="" style="rounded=0;whiteSpace=wrap;html=1;" parent="B0VMzJoKe4TUpSzNYnwX-53" vertex="1">
          <mxGeometry x="1.4210854715201983e-14" width="19.99999999999997" height="210.00000000000003" as="geometry" />
        </mxCell>
        <mxCell id="B0VMzJoKe4TUpSzNYnwX-55" value="Repositories" style="text;html=1;strokeColor=none;fillColor=none;align=center;verticalAlign=middle;whiteSpace=wrap;rounded=0;rotation=270;fontFamily=Verdana;fontStyle=1" parent="B0VMzJoKe4TUpSzNYnwX-53" vertex="1">
          <mxGeometry x="-69.99999999999989" y="91.87500000000001" width="159.99999999999977" height="26.250000000000004" as="geometry" />
        </mxCell>
        <mxCell id="dTRLTsDtkOgccjPARA5K-7" value="Enetities preparation" style="rounded=0;whiteSpace=wrap;html=1;" vertex="1" parent="B0VMzJoKe4TUpSzNYnwX-47">
          <mxGeometry x="37" y="59" width="120" height="41" as="geometry" />
        </mxCell>
        <mxCell id="dTRLTsDtkOgccjPARA5K-8" value="Repositories operations" style="rounded=0;whiteSpace=wrap;html=1;" vertex="1" parent="B0VMzJoKe4TUpSzNYnwX-47">
          <mxGeometry x="37" y="100" width="120" height="41" as="geometry" />
        </mxCell>
        <mxCell id="B0VMzJoKe4TUpSzNYnwX-56" value="" style="endArrow=block;dashed=1;endFill=0;endSize=12;html=1;rounded=0;" parent="1" edge="1">
          <mxGeometry width="160" relative="1" as="geometry">
            <mxPoint x="825" y="339.5" as="sourcePoint" />
            <mxPoint x="705" y="339.5" as="targetPoint" />
          </mxGeometry>
        </mxCell>
        <mxCell id="B0VMzJoKe4TUpSzNYnwX-57" value="" style="endArrow=block;dashed=1;endFill=0;endSize=12;html=1;rounded=0;" parent="1" edge="1">
          <mxGeometry width="160" relative="1" as="geometry">
            <mxPoint x="825" y="399.5" as="sourcePoint" />
            <mxPoint x="705" y="399.5" as="targetPoint" />
          </mxGeometry>
        </mxCell>
        <mxCell id="B0VMzJoKe4TUpSzNYnwX-60" value="REST" style="sketch=0;outlineConnect=0;fontColor=#232F3E;gradientColor=none;strokeColor=#232F3E;fillColor=#ffffff;dashed=0;verticalLabelPosition=bottom;verticalAlign=top;align=center;html=1;fontSize=12;fontStyle=0;aspect=fixed;shape=mxgraph.aws4.resourceIcon;resIcon=mxgraph.aws4.http_protocol;" parent="1" vertex="1">
          <mxGeometry x="-223" y="280" width="60" height="60" as="geometry" />
        </mxCell>
        <mxCell id="B0VMzJoKe4TUpSzNYnwX-62" value="" style="group" parent="1" vertex="1" connectable="0">
          <mxGeometry x="830" y="441" width="190" height="210" as="geometry" />
        </mxCell>
        <mxCell id="B0VMzJoKe4TUpSzNYnwX-63" value="" style="rounded=0;whiteSpace=wrap;html=1;align=center;fontSize=13;fontStyle=1" parent="B0VMzJoKe4TUpSzNYnwX-62" vertex="1">
          <mxGeometry width="190" height="210.00000000000003" as="geometry" />
        </mxCell>
        <mxCell id="B0VMzJoKe4TUpSzNYnwX-64" value="verification-cache" style="text;html=1;strokeColor=none;fillColor=none;align=center;verticalAlign=middle;whiteSpace=wrap;rounded=0;fontSize=13;fontStyle=1" parent="B0VMzJoKe4TUpSzNYnwX-62" vertex="1">
          <mxGeometry x="20" width="150" height="33.15789473684211" as="geometry" />
        </mxCell>
        <mxCell id="B0VMzJoKe4TUpSzNYnwX-65" value="" style="group" parent="B0VMzJoKe4TUpSzNYnwX-62" vertex="1" connectable="0">
          <mxGeometry width="20" height="210.00000000000003" as="geometry" />
        </mxCell>
        <mxCell id="B0VMzJoKe4TUpSzNYnwX-66" value="" style="rounded=0;whiteSpace=wrap;html=1;" parent="B0VMzJoKe4TUpSzNYnwX-65" vertex="1">
          <mxGeometry x="1.4210854715201983e-14" width="19.99999999999997" height="210.00000000000003" as="geometry" />
        </mxCell>
        <mxCell id="B0VMzJoKe4TUpSzNYnwX-67" value="Cache&amp;nbsp; &amp;nbsp;Adapters" style="text;html=1;strokeColor=none;fillColor=none;align=center;verticalAlign=middle;whiteSpace=wrap;rounded=0;rotation=270;fontFamily=Verdana;fontStyle=1" parent="B0VMzJoKe4TUpSzNYnwX-65" vertex="1">
          <mxGeometry x="-69.99999999999989" y="91.87500000000001" width="159.99999999999977" height="26.250000000000004" as="geometry" />
        </mxCell>
        <mxCell id="B0VMzJoKe4TUpSzNYnwX-68" value="" style="group" parent="B0VMzJoKe4TUpSzNYnwX-62" vertex="1" connectable="0">
          <mxGeometry x="170" width="20" height="210.00000000000003" as="geometry" />
        </mxCell>
        <mxCell id="B0VMzJoKe4TUpSzNYnwX-69" value="" style="rounded=0;whiteSpace=wrap;html=1;" parent="B0VMzJoKe4TUpSzNYnwX-68" vertex="1">
          <mxGeometry x="1.4210854715201983e-14" width="19.99999999999997" height="210.00000000000003" as="geometry" />
        </mxCell>
        <mxCell id="B0VMzJoKe4TUpSzNYnwX-70" value="Redis&amp;nbsp; &amp;nbsp;Tempaltes" style="text;html=1;strokeColor=none;fillColor=none;align=center;verticalAlign=middle;whiteSpace=wrap;rounded=0;rotation=270;fontFamily=Verdana;fontStyle=1" parent="B0VMzJoKe4TUpSzNYnwX-68" vertex="1">
          <mxGeometry x="-69.99999999999989" y="91.87500000000001" width="159.99999999999977" height="26.250000000000004" as="geometry" />
        </mxCell>
        <mxCell id="B0VMzJoKe4TUpSzNYnwX-105" value="Module" style="text;html=1;strokeColor=none;fillColor=none;align=center;verticalAlign=middle;whiteSpace=wrap;rounded=0;fontSize=13;fontStyle=1" parent="B0VMzJoKe4TUpSzNYnwX-62" vertex="1">
          <mxGeometry x="65" y="33.15999999999997" width="60" height="30" as="geometry" />
        </mxCell>
        <mxCell id="dTRLTsDtkOgccjPARA5K-9" value="Cache models preparation" style="rounded=0;whiteSpace=wrap;html=1;" vertex="1" parent="B0VMzJoKe4TUpSzNYnwX-62">
          <mxGeometry x="35" y="63.15999999999997" width="120" height="41" as="geometry" />
        </mxCell>
        <mxCell id="dTRLTsDtkOgccjPARA5K-10" value="RedisTemplate operations" style="rounded=0;whiteSpace=wrap;html=1;" vertex="1" parent="B0VMzJoKe4TUpSzNYnwX-62">
          <mxGeometry x="35" y="104.15999999999997" width="120" height="41" as="geometry" />
        </mxCell>
        <mxCell id="B0VMzJoKe4TUpSzNYnwX-71" value="" style="shape=image;verticalLabelPosition=bottom;labelBackgroundColor=default;verticalAlign=top;aspect=fixed;imageAspect=0;image=https://upload.wikimedia.org/wikipedia/en/thumb/6/6b/Redis_Logo.svg/1200px-Redis_Logo.svg.png;" parent="1" vertex="1">
          <mxGeometry x="1030" y="516.61" width="129.84" height="43.39" as="geometry" />
        </mxCell>
        <mxCell id="B0VMzJoKe4TUpSzNYnwX-72" value="" style="shape=image;verticalLabelPosition=bottom;labelBackgroundColor=default;verticalAlign=top;aspect=fixed;imageAspect=0;image=https://upload.wikimedia.org/wikipedia/commons/thumb/b/ba/Database-postgres.svg/1200px-Database-postgres.svg.png;" parent="1" vertex="1">
          <mxGeometry x="1030" y="250" width="102.59" height="145" as="geometry" />
        </mxCell>
        <mxCell id="B0VMzJoKe4TUpSzNYnwX-73" value="" style="endArrow=block;dashed=1;endFill=0;endSize=12;html=1;rounded=0;" parent="1" edge="1">
          <mxGeometry width="160" relative="1" as="geometry">
            <mxPoint x="825" y="479.40999999999997" as="sourcePoint" />
            <mxPoint x="705" y="479.40999999999997" as="targetPoint" />
          </mxGeometry>
        </mxCell>
        <mxCell id="B0VMzJoKe4TUpSzNYnwX-74" value="" style="endArrow=block;dashed=1;endFill=0;endSize=12;html=1;rounded=0;" parent="1" edge="1">
          <mxGeometry width="160" relative="1" as="geometry">
            <mxPoint x="825" y="539.41" as="sourcePoint" />
            <mxPoint x="705" y="539.41" as="targetPoint" />
          </mxGeometry>
        </mxCell>
        <mxCell id="B0VMzJoKe4TUpSzNYnwX-75" value="" style="endArrow=block;dashed=1;endFill=0;endSize=12;html=1;rounded=0;" parent="1" edge="1">
          <mxGeometry width="160" relative="1" as="geometry">
            <mxPoint x="825" y="619.41" as="sourcePoint" />
            <mxPoint x="705" y="619.41" as="targetPoint" />
          </mxGeometry>
        </mxCell>
        <mxCell id="B0VMzJoKe4TUpSzNYnwX-85" value="" style="endArrow=block;dashed=1;endFill=0;endSize=12;html=1;rounded=0;" parent="1" edge="1">
          <mxGeometry width="160" relative="1" as="geometry">
            <mxPoint x="825" y="699.5" as="sourcePoint" />
            <mxPoint x="705" y="699.5" as="targetPoint" />
          </mxGeometry>
        </mxCell>
        <mxCell id="B0VMzJoKe4TUpSzNYnwX-86" value="" style="endArrow=block;dashed=1;endFill=0;endSize=12;html=1;rounded=0;" parent="1" edge="1">
          <mxGeometry width="160" relative="1" as="geometry">
            <mxPoint x="825" y="759.5" as="sourcePoint" />
            <mxPoint x="705" y="759.5" as="targetPoint" />
          </mxGeometry>
        </mxCell>
        <mxCell id="B0VMzJoKe4TUpSzNYnwX-87" value="" style="endArrow=block;dashed=1;endFill=0;endSize=12;html=1;rounded=0;" parent="1" edge="1">
          <mxGeometry width="160" relative="1" as="geometry">
            <mxPoint x="825" y="839.5" as="sourcePoint" />
            <mxPoint x="705" y="839.5" as="targetPoint" />
          </mxGeometry>
        </mxCell>
        <mxCell id="B0VMzJoKe4TUpSzNYnwX-88" value="" style="group" parent="1" vertex="1" connectable="0">
          <mxGeometry x="826.875" y="664.995" width="196.25" height="225" as="geometry" />
        </mxCell>
        <mxCell id="B0VMzJoKe4TUpSzNYnwX-77" value="" style="rounded=0;whiteSpace=wrap;html=1;align=center;fontSize=13;fontStyle=1" parent="B0VMzJoKe4TUpSzNYnwX-88" vertex="1">
          <mxGeometry x="3.125" y="5.0049999999999955" width="190" height="210.00000000000003" as="geometry" />
        </mxCell>
        <mxCell id="B0VMzJoKe4TUpSzNYnwX-78" value="verification-out-event" style="text;html=1;strokeColor=none;fillColor=none;align=center;verticalAlign=middle;whiteSpace=wrap;rounded=0;fontSize=13;fontStyle=1" parent="B0VMzJoKe4TUpSzNYnwX-88" vertex="1">
          <mxGeometry x="23.125" y="5.0049999999999955" width="150" height="33.15789473684211" as="geometry" />
        </mxCell>
        <mxCell id="B0VMzJoKe4TUpSzNYnwX-80" value="" style="rounded=0;whiteSpace=wrap;html=1;" parent="B0VMzJoKe4TUpSzNYnwX-88" vertex="1">
          <mxGeometry x="3.125" y="5.0049999999999955" width="19.99999999999997" height="210.00000000000003" as="geometry" />
        </mxCell>
        <mxCell id="B0VMzJoKe4TUpSzNYnwX-81" value="Event&amp;nbsp; &amp;nbsp;Adapters" style="text;html=1;strokeColor=none;fillColor=none;align=center;verticalAlign=middle;whiteSpace=wrap;rounded=0;rotation=270;fontFamily=Verdana;fontStyle=1" parent="B0VMzJoKe4TUpSzNYnwX-88" vertex="1">
          <mxGeometry x="-66.87499999999989" y="96.88" width="159.99999999999977" height="26.250000000000004" as="geometry" />
        </mxCell>
        <mxCell id="B0VMzJoKe4TUpSzNYnwX-83" value="" style="rounded=0;whiteSpace=wrap;html=1;" parent="B0VMzJoKe4TUpSzNYnwX-88" vertex="1">
          <mxGeometry x="173.125" y="5.0049999999999955" width="19.99999999999997" height="210.00000000000003" as="geometry" />
        </mxCell>
        <mxCell id="B0VMzJoKe4TUpSzNYnwX-84" value="Kafka Producer Templates" style="text;html=1;strokeColor=none;fillColor=none;align=center;verticalAlign=middle;whiteSpace=wrap;rounded=0;rotation=270;fontFamily=Verdana;fontStyle=1" parent="B0VMzJoKe4TUpSzNYnwX-88" vertex="1">
          <mxGeometry x="70.625" y="99.375" width="225" height="26.25" as="geometry" />
        </mxCell>
        <mxCell id="B0VMzJoKe4TUpSzNYnwX-106" value="Module" style="text;html=1;strokeColor=none;fillColor=none;align=center;verticalAlign=middle;whiteSpace=wrap;rounded=0;fontSize=13;fontStyle=1" parent="B0VMzJoKe4TUpSzNYnwX-88" vertex="1">
          <mxGeometry x="68.125" y="38.164999999999964" width="60" height="30" as="geometry" />
        </mxCell>
        <mxCell id="dTRLTsDtkOgccjPARA5K-11" value="Events preparation" style="rounded=0;whiteSpace=wrap;html=1;" vertex="1" parent="B0VMzJoKe4TUpSzNYnwX-88">
          <mxGeometry x="38.125" y="68.16499999999996" width="120" height="41" as="geometry" />
        </mxCell>
        <mxCell id="dTRLTsDtkOgccjPARA5K-12" value="Kafka Producer Template operations" style="rounded=0;whiteSpace=wrap;html=1;" vertex="1" parent="B0VMzJoKe4TUpSzNYnwX-88">
          <mxGeometry x="38.125" y="109.16499999999996" width="120" height="41" as="geometry" />
        </mxCell>
        <mxCell id="B0VMzJoKe4TUpSzNYnwX-91" value="" style="shape=image;verticalLabelPosition=bottom;labelBackgroundColor=default;verticalAlign=top;aspect=fixed;imageAspect=0;image=https://www.stonebranch.com/integration-hub/media/9e/7b/ff/1636467322/Kafka_Vendor_Product_Logo.svg;" parent="1" vertex="1">
          <mxGeometry x="1009.9200000000001" y="696.67" width="170" height="113.33" as="geometry" />
        </mxCell>
        <mxCell id="B0VMzJoKe4TUpSzNYnwX-92" value="" style="group" parent="1" vertex="1" connectable="0">
          <mxGeometry x="-163.995" y="459.995" width="196.25" height="225" as="geometry" />
        </mxCell>
        <mxCell id="B0VMzJoKe4TUpSzNYnwX-93" value="" style="rounded=0;whiteSpace=wrap;html=1;align=center;fontSize=13;fontStyle=1" parent="B0VMzJoKe4TUpSzNYnwX-92" vertex="1">
          <mxGeometry x="3.125" y="5.0049999999999955" width="190" height="210.00000000000003" as="geometry" />
        </mxCell>
        <mxCell id="B0VMzJoKe4TUpSzNYnwX-94" value="verification-in-event" style="text;html=1;strokeColor=none;fillColor=none;align=center;verticalAlign=middle;whiteSpace=wrap;rounded=0;fontSize=13;fontStyle=1" parent="B0VMzJoKe4TUpSzNYnwX-92" vertex="1">
          <mxGeometry x="23.125" y="5.0049999999999955" width="150" height="33.15789473684211" as="geometry" />
        </mxCell>
        <mxCell id="B0VMzJoKe4TUpSzNYnwX-95" value="" style="rounded=0;whiteSpace=wrap;html=1;" parent="B0VMzJoKe4TUpSzNYnwX-92" vertex="1">
          <mxGeometry x="3.125" y="5.0049999999999955" width="19.99999999999997" height="210.00000000000003" as="geometry" />
        </mxCell>
        <mxCell id="B0VMzJoKe4TUpSzNYnwX-96" value="Kafka&amp;nbsp; &amp;nbsp;Consumer&amp;nbsp; &amp;nbsp;Template" style="text;html=1;strokeColor=none;fillColor=none;align=center;verticalAlign=middle;whiteSpace=wrap;rounded=0;rotation=270;fontFamily=Verdana;fontStyle=1" parent="B0VMzJoKe4TUpSzNYnwX-92" vertex="1">
          <mxGeometry x="-90.71" y="97.73" width="207.66" height="26.25" as="geometry" />
        </mxCell>
        <mxCell id="B0VMzJoKe4TUpSzNYnwX-97" value="" style="rounded=0;whiteSpace=wrap;html=1;" parent="B0VMzJoKe4TUpSzNYnwX-92" vertex="1">
          <mxGeometry x="173.125" y="5.0049999999999955" width="19.99999999999997" height="210.00000000000003" as="geometry" />
        </mxCell>
        <mxCell id="B0VMzJoKe4TUpSzNYnwX-98" value="VerificationEventAdapter" style="text;html=1;strokeColor=none;fillColor=none;align=center;verticalAlign=middle;whiteSpace=wrap;rounded=0;rotation=270;fontFamily=Verdana;fontStyle=1" parent="B0VMzJoKe4TUpSzNYnwX-92" vertex="1">
          <mxGeometry x="70.625" y="99.375" width="225" height="26.25" as="geometry" />
        </mxCell>
        <mxCell id="B0VMzJoKe4TUpSzNYnwX-102" value="Module" style="text;html=1;strokeColor=none;fillColor=none;align=center;verticalAlign=middle;whiteSpace=wrap;rounded=0;fontSize=13;fontStyle=1" parent="B0VMzJoKe4TUpSzNYnwX-92" vertex="1">
          <mxGeometry x="68.125" y="32.164999999999964" width="60" height="30" as="geometry" />
        </mxCell>
        <mxCell id="dTRLTsDtkOgccjPARA5K-13" value="Events retrieving" style="rounded=0;whiteSpace=wrap;html=1;" vertex="1" parent="B0VMzJoKe4TUpSzNYnwX-92">
          <mxGeometry x="38.13" y="68.16" width="120" height="31.84" as="geometry" />
        </mxCell>
        <mxCell id="dTRLTsDtkOgccjPARA5K-15" value="Commands preparation" style="rounded=0;whiteSpace=wrap;html=1;" vertex="1" parent="B0VMzJoKe4TUpSzNYnwX-92">
          <mxGeometry x="38.12" y="100" width="120" height="40" as="geometry" />
        </mxCell>
        <mxCell id="B0VMzJoKe4TUpSzNYnwX-99" value="" style="shape=image;verticalLabelPosition=bottom;labelBackgroundColor=default;verticalAlign=top;aspect=fixed;imageAspect=0;image=https://www.stonebranch.com/integration-hub/media/9e/7b/ff/1636467322/Kafka_Vendor_Product_Logo.svg;" parent="1" vertex="1">
          <mxGeometry x="-325" y="493" width="170" height="113.33" as="geometry" />
        </mxCell>
        <mxCell id="B0VMzJoKe4TUpSzNYnwX-100" value="1" style="endArrow=open;html=1;endSize=12;startArrow=diamondThin;startSize=14;startFill=0;edgeStyle=orthogonalEdgeStyle;align=left;verticalAlign=bottom;rounded=0;" parent="1" edge="1">
          <mxGeometry x="-1" y="3" relative="1" as="geometry">
            <mxPoint x="30" y="529.5" as="sourcePoint" />
            <mxPoint x="134.41" y="530" as="targetPoint" />
          </mxGeometry>
        </mxCell>
        <mxCell id="B0VMzJoKe4TUpSzNYnwX-101" value="Module" style="text;html=1;strokeColor=none;fillColor=none;align=center;verticalAlign=middle;whiteSpace=wrap;rounded=0;fontSize=13;fontStyle=1" parent="1" vertex="1">
          <mxGeometry x="-95" y="249" width="60" height="30" as="geometry" />
        </mxCell>
        <mxCell id="B0VMzJoKe4TUpSzNYnwX-104" value="Module" style="text;html=1;strokeColor=none;fillColor=none;align=center;verticalAlign=middle;whiteSpace=wrap;rounded=0;fontSize=13;fontStyle=1" parent="1" vertex="1">
          <mxGeometry x="895" y="237.16" width="60" height="30" as="geometry" />
        </mxCell>
      </root>
    </mxGraphModel>
  </diagram>
</mxfile>
